<mxfile host="app.diagrams.net" modified="2023-11-14T11:51:00.866Z" agent="Mozilla/5.0 (Windows NT 10.0; Win64; x64) AppleWebKit/537.36 (KHTML, like Gecko) Chrome/119.0.0.0 Safari/537.36" etag="SjhXw0MQf4RvEVRV0wYF" version="22.1.0" type="device">
  <diagram name="Страница — 1" id="RobMiZ-bOQ7rdP7qLN_0">
    <mxGraphModel dx="897" dy="513" grid="1" gridSize="10" guides="1" tooltips="1" connect="1" arrows="1" fold="1" page="1" pageScale="1" pageWidth="827" pageHeight="1169" math="0" shadow="0">
      <root>
        <mxCell id="0" />
        <mxCell id="1" parent="0" />
        <mxCell id="x8Sbtwd1SYY9ZmLCzbeD-8" style="rounded=0;orthogonalLoop=1;jettySize=auto;html=1;entryX=0;entryY=0.5;entryDx=0;entryDy=0;" edge="1" parent="1" target="x8Sbtwd1SYY9ZmLCzbeD-6">
          <mxGeometry relative="1" as="geometry">
            <mxPoint x="289" y="200" as="targetPoint" />
            <mxPoint x="239" y="250" as="sourcePoint" />
          </mxGeometry>
        </mxCell>
        <mxCell id="x8Sbtwd1SYY9ZmLCzbeD-10" style="rounded=0;orthogonalLoop=1;jettySize=auto;html=1;entryX=0.192;entryY=0;entryDx=0;entryDy=0;entryPerimeter=0;" edge="1" parent="1" source="x8Sbtwd1SYY9ZmLCzbeD-1" target="x8Sbtwd1SYY9ZmLCzbeD-7">
          <mxGeometry relative="1" as="geometry">
            <mxPoint x="279" y="260" as="targetPoint" />
          </mxGeometry>
        </mxCell>
        <mxCell id="x8Sbtwd1SYY9ZmLCzbeD-14" style="rounded=0;orthogonalLoop=1;jettySize=auto;html=1;entryX=0;entryY=1;entryDx=0;entryDy=0;" edge="1" parent="1" source="x8Sbtwd1SYY9ZmLCzbeD-1" target="x8Sbtwd1SYY9ZmLCzbeD-13">
          <mxGeometry relative="1" as="geometry">
            <mxPoint x="224.0000000000001" y="150" as="targetPoint" />
          </mxGeometry>
        </mxCell>
        <mxCell id="x8Sbtwd1SYY9ZmLCzbeD-17" style="rounded=0;orthogonalLoop=1;jettySize=auto;html=1;entryX=0;entryY=1;entryDx=0;entryDy=0;" edge="1" parent="1" source="x8Sbtwd1SYY9ZmLCzbeD-1" target="x8Sbtwd1SYY9ZmLCzbeD-16">
          <mxGeometry relative="1" as="geometry">
            <mxPoint x="224.0000000000001" y="120" as="targetPoint" />
          </mxGeometry>
        </mxCell>
        <mxCell id="x8Sbtwd1SYY9ZmLCzbeD-24" style="rounded=0;orthogonalLoop=1;jettySize=auto;html=1;entryX=0.016;entryY=0.278;entryDx=0;entryDy=0;entryPerimeter=0;" edge="1" parent="1" source="x8Sbtwd1SYY9ZmLCzbeD-1" target="x8Sbtwd1SYY9ZmLCzbeD-22">
          <mxGeometry relative="1" as="geometry">
            <mxPoint x="223.9999999999999" y="360" as="targetPoint" />
          </mxGeometry>
        </mxCell>
        <mxCell id="x8Sbtwd1SYY9ZmLCzbeD-1" value="Driver(Водитель)" style="shape=umlActor;verticalLabelPosition=bottom;verticalAlign=top;html=1;outlineConnect=0;" vertex="1" parent="1">
          <mxGeometry x="159" y="220" width="30" height="60" as="geometry" />
        </mxCell>
        <mxCell id="x8Sbtwd1SYY9ZmLCzbeD-11" style="rounded=0;orthogonalLoop=1;jettySize=auto;html=1;entryX=1;entryY=0.5;entryDx=0;entryDy=0;" edge="1" parent="1" source="x8Sbtwd1SYY9ZmLCzbeD-2" target="x8Sbtwd1SYY9ZmLCzbeD-7">
          <mxGeometry relative="1" as="geometry">
            <mxPoint x="459" y="320" as="targetPoint" />
          </mxGeometry>
        </mxCell>
        <mxCell id="x8Sbtwd1SYY9ZmLCzbeD-12" style="rounded=0;orthogonalLoop=1;jettySize=auto;html=1;entryX=0.958;entryY=0.705;entryDx=0;entryDy=0;entryPerimeter=0;" edge="1" parent="1" source="x8Sbtwd1SYY9ZmLCzbeD-2" target="x8Sbtwd1SYY9ZmLCzbeD-6">
          <mxGeometry relative="1" as="geometry">
            <mxPoint x="479" y="250" as="targetPoint" />
          </mxGeometry>
        </mxCell>
        <mxCell id="x8Sbtwd1SYY9ZmLCzbeD-21" style="rounded=0;orthogonalLoop=1;jettySize=auto;html=1;entryX=0.358;entryY=1.057;entryDx=0;entryDy=0;entryPerimeter=0;" edge="1" parent="1" source="x8Sbtwd1SYY9ZmLCzbeD-2" target="x8Sbtwd1SYY9ZmLCzbeD-20">
          <mxGeometry relative="1" as="geometry">
            <mxPoint x="599" y="290.0000000000001" as="targetPoint" />
          </mxGeometry>
        </mxCell>
        <mxCell id="x8Sbtwd1SYY9ZmLCzbeD-23" style="rounded=0;orthogonalLoop=1;jettySize=auto;html=1;entryX=1.002;entryY=0.333;entryDx=0;entryDy=0;entryPerimeter=0;" edge="1" parent="1" source="x8Sbtwd1SYY9ZmLCzbeD-2" target="x8Sbtwd1SYY9ZmLCzbeD-22">
          <mxGeometry relative="1" as="geometry">
            <mxPoint x="439" y="370" as="targetPoint" />
          </mxGeometry>
        </mxCell>
        <mxCell id="x8Sbtwd1SYY9ZmLCzbeD-2" value="Client(Клиент)" style="shape=umlActor;verticalLabelPosition=bottom;verticalAlign=top;html=1;outlineConnect=0;" vertex="1" parent="1">
          <mxGeometry x="509" y="280" width="30" height="60" as="geometry" />
        </mxCell>
        <mxCell id="x8Sbtwd1SYY9ZmLCzbeD-6" value="Send a message(Отправить сообщение)" style="ellipse;whiteSpace=wrap;html=1;" vertex="1" parent="1">
          <mxGeometry x="289" y="210" width="120" height="50" as="geometry" />
        </mxCell>
        <mxCell id="x8Sbtwd1SYY9ZmLCzbeD-7" value="Call(Позвонить)" style="ellipse;whiteSpace=wrap;html=1;" vertex="1" parent="1">
          <mxGeometry x="283" y="270" width="120" height="50" as="geometry" />
        </mxCell>
        <mxCell id="x8Sbtwd1SYY9ZmLCzbeD-13" value="Complete the order(Выполнить заказ)" style="ellipse;whiteSpace=wrap;html=1;" vertex="1" parent="1">
          <mxGeometry x="260" y="150" width="120" height="50" as="geometry" />
        </mxCell>
        <mxCell id="x8Sbtwd1SYY9ZmLCzbeD-16" value="Accept order(Принять заказ)" style="ellipse;whiteSpace=wrap;html=1;" vertex="1" parent="1">
          <mxGeometry x="118" y="130" width="131" height="60" as="geometry" />
        </mxCell>
        <mxCell id="x8Sbtwd1SYY9ZmLCzbeD-18" value="Create an order(Создать заказ)" style="ellipse;whiteSpace=wrap;html=1;" vertex="1" parent="1">
          <mxGeometry x="419" y="190" width="131" height="60" as="geometry" />
        </mxCell>
        <mxCell id="x8Sbtwd1SYY9ZmLCzbeD-19" style="rounded=0;orthogonalLoop=1;jettySize=auto;html=1;entryX=0.454;entryY=0.98;entryDx=0;entryDy=0;entryPerimeter=0;" edge="1" parent="1" source="x8Sbtwd1SYY9ZmLCzbeD-2" target="x8Sbtwd1SYY9ZmLCzbeD-18">
          <mxGeometry relative="1" as="geometry" />
        </mxCell>
        <mxCell id="x8Sbtwd1SYY9ZmLCzbeD-20" value="Payment for the order(Оплатить заказ)" style="ellipse;whiteSpace=wrap;html=1;" vertex="1" parent="1">
          <mxGeometry x="530" y="230" width="141" height="60" as="geometry" />
        </mxCell>
        <mxCell id="x8Sbtwd1SYY9ZmLCzbeD-22" value="Cancel the order(Отменить заказ)" style="ellipse;whiteSpace=wrap;html=1;" vertex="1" parent="1">
          <mxGeometry x="289" y="330" width="120" height="50" as="geometry" />
        </mxCell>
        <mxCell id="x8Sbtwd1SYY9ZmLCzbeD-25" value="Диаграмма вариантов использования" style="text;html=1;strokeColor=none;fillColor=none;align=center;verticalAlign=middle;whiteSpace=wrap;rounded=0;" vertex="1" parent="1">
          <mxGeometry x="249" y="390" width="236" height="10" as="geometry" />
        </mxCell>
        <mxCell id="x8Sbtwd1SYY9ZmLCzbeD-31" value="Driver(Водитель)" style="rounded=1;whiteSpace=wrap;html=1;" vertex="1" parent="1">
          <mxGeometry x="274" y="480" width="120" height="60" as="geometry" />
        </mxCell>
        <mxCell id="x8Sbtwd1SYY9ZmLCzbeD-35" style="edgeStyle=orthogonalEdgeStyle;rounded=0;orthogonalLoop=1;jettySize=auto;html=1;entryX=0.5;entryY=0;entryDx=0;entryDy=0;" edge="1" parent="1">
          <mxGeometry relative="1" as="geometry">
            <mxPoint x="143.63" y="520" as="sourcePoint" />
            <mxPoint x="143.63" y="620" as="targetPoint" />
          </mxGeometry>
        </mxCell>
        <mxCell id="x8Sbtwd1SYY9ZmLCzbeD-32" value="Client(Клиент)" style="rounded=1;whiteSpace=wrap;html=1;" vertex="1" parent="1">
          <mxGeometry x="84" y="480" width="120" height="60" as="geometry" />
        </mxCell>
        <mxCell id="x8Sbtwd1SYY9ZmLCzbeD-51" style="edgeStyle=orthogonalEdgeStyle;rounded=0;orthogonalLoop=1;jettySize=auto;html=1;entryX=0;entryY=0.75;entryDx=0;entryDy=0;" edge="1" parent="1" source="x8Sbtwd1SYY9ZmLCzbeD-34" target="x8Sbtwd1SYY9ZmLCzbeD-46">
          <mxGeometry relative="1" as="geometry">
            <Array as="points">
              <mxPoint x="245" y="720" />
              <mxPoint x="245" y="720" />
            </Array>
          </mxGeometry>
        </mxCell>
        <mxCell id="x8Sbtwd1SYY9ZmLCzbeD-34" value="" style="rounded=1;whiteSpace=wrap;html=1;" vertex="1" parent="1">
          <mxGeometry x="134" y="620" width="20" height="140" as="geometry" />
        </mxCell>
        <mxCell id="x8Sbtwd1SYY9ZmLCzbeD-36" value="" style="endArrow=classic;html=1;rounded=0;entryX=0.023;entryY=0.568;entryDx=0;entryDy=0;entryPerimeter=0;" edge="1" parent="1" target="x8Sbtwd1SYY9ZmLCzbeD-39">
          <mxGeometry width="50" height="50" relative="1" as="geometry">
            <mxPoint x="155" y="700" as="sourcePoint" />
            <mxPoint x="245" y="700" as="targetPoint" />
          </mxGeometry>
        </mxCell>
        <mxCell id="x8Sbtwd1SYY9ZmLCzbeD-37" value="Checkout(Оформить заказ)" style="text;html=1;strokeColor=none;fillColor=none;align=center;verticalAlign=middle;whiteSpace=wrap;rounded=0;" vertex="1" parent="1">
          <mxGeometry x="135" y="670" width="200" height="30" as="geometry" />
        </mxCell>
        <mxCell id="x8Sbtwd1SYY9ZmLCzbeD-38" style="edgeStyle=orthogonalEdgeStyle;rounded=0;orthogonalLoop=1;jettySize=auto;html=1;" edge="1" parent="1">
          <mxGeometry relative="1" as="geometry">
            <mxPoint x="333.78" y="540" as="sourcePoint" />
            <mxPoint x="334" y="620" as="targetPoint" />
            <Array as="points">
              <mxPoint x="334.15" y="570" />
              <mxPoint x="334.15" y="570" />
            </Array>
          </mxGeometry>
        </mxCell>
        <mxCell id="x8Sbtwd1SYY9ZmLCzbeD-49" style="edgeStyle=orthogonalEdgeStyle;rounded=0;orthogonalLoop=1;jettySize=auto;html=1;entryX=0;entryY=0.25;entryDx=0;entryDy=0;" edge="1" parent="1" source="x8Sbtwd1SYY9ZmLCzbeD-39" target="x8Sbtwd1SYY9ZmLCzbeD-46">
          <mxGeometry relative="1" as="geometry">
            <Array as="points">
              <mxPoint x="385" y="650" />
              <mxPoint x="385" y="650" />
            </Array>
          </mxGeometry>
        </mxCell>
        <mxCell id="x8Sbtwd1SYY9ZmLCzbeD-39" value="" style="rounded=1;whiteSpace=wrap;html=1;" vertex="1" parent="1">
          <mxGeometry x="324" y="620" width="20" height="140" as="geometry" />
        </mxCell>
        <mxCell id="x8Sbtwd1SYY9ZmLCzbeD-47" style="edgeStyle=orthogonalEdgeStyle;rounded=0;orthogonalLoop=1;jettySize=auto;html=1;exitX=0.5;exitY=1;exitDx=0;exitDy=0;entryX=0.5;entryY=0;entryDx=0;entryDy=0;" edge="1" parent="1" source="x8Sbtwd1SYY9ZmLCzbeD-45" target="x8Sbtwd1SYY9ZmLCzbeD-46">
          <mxGeometry relative="1" as="geometry" />
        </mxCell>
        <mxCell id="x8Sbtwd1SYY9ZmLCzbeD-45" value="Order&lt;br&gt;Manager(Менеджер заказов)" style="rounded=1;whiteSpace=wrap;html=1;" vertex="1" parent="1">
          <mxGeometry x="465" y="480" width="120" height="60" as="geometry" />
        </mxCell>
        <mxCell id="x8Sbtwd1SYY9ZmLCzbeD-46" value="" style="rounded=1;whiteSpace=wrap;html=1;" vertex="1" parent="1">
          <mxGeometry x="515" y="615" width="20" height="140" as="geometry" />
        </mxCell>
        <mxCell id="x8Sbtwd1SYY9ZmLCzbeD-50" value="Complete the order(Выполнить заказ)" style="text;html=1;strokeColor=none;fillColor=none;align=center;verticalAlign=middle;whiteSpace=wrap;rounded=0;" vertex="1" parent="1">
          <mxGeometry x="335" y="630" width="190" height="10" as="geometry" />
        </mxCell>
        <mxCell id="x8Sbtwd1SYY9ZmLCzbeD-52" value="Pay for the order(Оплатить заказ)" style="text;html=1;strokeColor=none;fillColor=none;align=center;verticalAlign=middle;whiteSpace=wrap;rounded=0;" vertex="1" parent="1">
          <mxGeometry x="352.5" y="690" width="155" height="30" as="geometry" />
        </mxCell>
        <mxCell id="x8Sbtwd1SYY9ZmLCzbeD-56" style="edgeStyle=orthogonalEdgeStyle;rounded=0;orthogonalLoop=1;jettySize=auto;html=1;entryX=0.5;entryY=0;entryDx=0;entryDy=0;" edge="1" parent="1" source="x8Sbtwd1SYY9ZmLCzbeD-54" target="x8Sbtwd1SYY9ZmLCzbeD-55">
          <mxGeometry relative="1" as="geometry" />
        </mxCell>
        <mxCell id="x8Sbtwd1SYY9ZmLCzbeD-54" value="Manager(Менеджер)" style="rounded=1;whiteSpace=wrap;html=1;" vertex="1" parent="1">
          <mxGeometry x="622" y="480" width="120" height="60" as="geometry" />
        </mxCell>
        <mxCell id="x8Sbtwd1SYY9ZmLCzbeD-55" value="" style="rounded=1;whiteSpace=wrap;html=1;" vertex="1" parent="1">
          <mxGeometry x="672" y="615" width="20" height="140" as="geometry" />
        </mxCell>
        <mxCell id="x8Sbtwd1SYY9ZmLCzbeD-57" style="edgeStyle=orthogonalEdgeStyle;rounded=0;orthogonalLoop=1;jettySize=auto;html=1;entryX=-0.006;entryY=0.401;entryDx=0;entryDy=0;entryPerimeter=0;" edge="1" parent="1" source="x8Sbtwd1SYY9ZmLCzbeD-39" target="x8Sbtwd1SYY9ZmLCzbeD-55">
          <mxGeometry relative="1" as="geometry">
            <Array as="points">
              <mxPoint x="435" y="671" />
              <mxPoint x="435" y="671" />
            </Array>
          </mxGeometry>
        </mxCell>
        <mxCell id="x8Sbtwd1SYY9ZmLCzbeD-58" value="Finish order(Закончить заказ)" style="text;html=1;strokeColor=none;fillColor=none;align=center;verticalAlign=middle;whiteSpace=wrap;rounded=0;glass=1;" vertex="1" parent="1">
          <mxGeometry x="535" y="640" width="145" height="30" as="geometry" />
        </mxCell>
        <mxCell id="x8Sbtwd1SYY9ZmLCzbeD-59" value="Диаграмма последовательности" style="text;html=1;strokeColor=none;fillColor=none;align=center;verticalAlign=middle;whiteSpace=wrap;rounded=0;" vertex="1" parent="1">
          <mxGeometry x="319" y="770" width="206" height="20" as="geometry" />
        </mxCell>
      </root>
    </mxGraphModel>
  </diagram>
</mxfile>
